<?xml version="1.0" encoding="UTF-8"?>
<svg width="20px" height="16px" viewBox="0 0 20 16" version="1.1" xmlns="http://www.w3.org/2000/svg" xmlns:xlink="http://www.w3.org/1999/xlink">
    <!-- Generator: sketchtool 50.2 (55047) - http://www.bohemiancoding.com/sketch -->
    <title>84C5B8B9-8123-40D5-856E-6FE13FF8E9B6</title>
    <desc>Created with sketchtool.</desc>
    <defs></defs>
    <g id="Page-1" stroke="none" stroke-width="1" fill="none" fill-rule="evenodd">
        <g id="Artboard" transform="translate(-590.000000, -9198.000000)" fill="#FFFFFF" fill-rule="nonzero">
            <g id="footer" transform="translate(0.000000, 8847.000000)">
                <g id="Group-29" transform="translate(590.000000, 348.000000)">
                    <g id="envelope" transform="translate(0.000000, 3.000000)">
                        <path d="M17.5330579,0.0309917355 L2.44214876,0.0309917355 C1.09504132,0.0309917355 0,1.12603306 0,2.4731405 L0,12.7871901 C0,14.1342975 1.09504132,15.2293388 2.44214876,15.2293388 L17.5289256,15.2293388 C18.8760331,15.2293388 19.9710744,14.1342975 19.9710744,12.7871901 L19.9710744,2.47727273 C19.9752066,1.13016529 18.8801653,0.0309917355 17.5330579,0.0309917355 Z M18.8595041,12.7871901 C18.8595041,13.518595 18.2644628,14.1136364 17.5330579,14.1136364 L2.44214876,14.1136364 C1.7107438,14.1136364 1.11570248,13.518595 1.11570248,12.7871901 L1.11570248,2.47727273 C1.11570248,1.74586777 1.7107438,1.15082645 2.44214876,1.15082645 L17.5289256,1.15082645 C18.2603306,1.15082645 18.8553719,1.74586777 18.8553719,2.47727273 L18.8553719,12.7871901 L18.8595041,12.7871901 Z" id="Shape"></path>
                        <path d="M12.5950413,7.50206612 L17.4793388,3.12190083 C17.7066116,2.91528926 17.7272727,2.56404959 17.5206612,2.33264463 C17.3140496,2.1053719 16.9628099,2.08471074 16.731405,2.29132231 L9.99586777,8.33677686 L8.68181818,7.16322314 C8.67768595,7.15909091 8.67355372,7.15495868 8.67355372,7.15082645 C8.6446281,7.12190083 8.61570248,7.09710744 8.58264463,7.07231405 L3.23553719,2.28719008 C3.00413223,2.08057851 2.65289256,2.10123967 2.44628099,2.33264463 C2.23966942,2.56404959 2.26033058,2.91528926 2.49173554,3.12190083 L7.4338843,7.5392562 L2.51239669,12.1466942 C2.2892562,12.357438 2.2768595,12.7086777 2.48760331,12.9359504 C2.59917355,13.0516529 2.74793388,13.1136364 2.89669421,13.1136364 C3.03305785,13.1136364 3.16942149,13.0640496 3.2768595,12.964876 L8.27272727,8.29132231 L9.62809917,9.50206612 C9.73553719,9.59710744 9.8677686,9.64256198 10,9.64256198 C10.1322314,9.64256198 10.268595,9.59297521 10.3719008,9.49793388 L11.7644628,8.25 L16.731405,12.9690083 C16.838843,13.072314 16.9793388,13.1219008 17.1157025,13.1219008 C17.2644628,13.1219008 17.4090909,13.0640496 17.5206612,12.9483471 C17.731405,12.7252066 17.7231405,12.3698347 17.5,12.1590909 L12.5950413,7.50206612 Z" id="Shape"></path>
                    </g>
                </g>
            </g>
        </g>
    </g>
</svg>