<?xml version="1.0" encoding="UTF-8"?>
<svg width="16px" height="16px" viewBox="0 0 16 16" version="1.1" xmlns="http://www.w3.org/2000/svg" xmlns:xlink="http://www.w3.org/1999/xlink">
    <!-- Generator: sketchtool 50.2 (55047) - http://www.bohemiancoding.com/sketch -->
    <title>A13B6316-6EB5-415B-8084-613E8B510797</title>
    <desc>Created with sketchtool.</desc>
    <defs></defs>
    <g id="Page-1" stroke="none" stroke-width="1" fill="none" fill-rule="evenodd">
        <g id="Artboard" transform="translate(-521.000000, -41.000000)" fill="#FFFFFF">
            <g id="1" transform="translate(-143.000000, -14.000000)">
                <g id="content" transform="translate(547.000000, 43.000000)">
                    <g id="ic_fb" transform="translate(105.000000, 0.000000)">
                        <g id="Group-7" transform="translate(12.000000, 12.000000)">
                            <path d="M15.1297917,0.222222222 L0.870694444,0.222222222 C0.512430556,0.222222222 0.222222222,0.512430556 0.222222222,0.870208333 L0.222222222,15.1297917 C0.222222222,15.4875694 0.512430556,15.7777778 0.870694444,15.7777778 L8.48611111,15.7777778 L8.48611111,9.94444444 L6.54166667,9.94444444 L6.54166667,7.51388889 L8.48611111,7.51388889 L8.48611111,5.56944444 C8.48611111,3.56034722 9.75826389,2.57159722 11.5505556,2.57159722 C12.4090278,2.57159722 13.1469444,2.63576389 13.3618056,2.66395833 L13.3618056,4.76395833 L12.1188194,4.76444444 C11.1441667,4.76444444 10.9166667,5.22770833 10.9166667,5.90729167 L10.9166667,7.51388889 L13.3472222,7.51388889 L12.8611111,9.94444444 L10.9166667,9.94444444 L10.9555556,15.7777778 L15.1297917,15.7777778 C15.4875694,15.7777778 15.7777778,15.4875694 15.7777778,15.1297917 L15.7777778,0.870208333 C15.7777778,0.512430556 15.4875694,0.222222222 15.1297917,0.222222222" id="fb_ic"></path>
                        </g>
                    </g>
                </g>
            </g>
        </g>
    </g>
</svg>