<?xml version="1.0" encoding="UTF-8"?>
<svg width="16px" height="21px" viewBox="0 0 16 21" version="1.1" xmlns="http://www.w3.org/2000/svg" xmlns:xlink="http://www.w3.org/1999/xlink">
    <!-- Generator: sketchtool 50.2 (55047) - http://www.bohemiancoding.com/sketch -->
    <title>F8FC026A-13B5-4906-B763-CC04D21B875C</title>
    <desc>Created with sketchtool.</desc>
    <defs></defs>
    <g id="Page-1" stroke="none" stroke-width="1" fill="none" fill-rule="evenodd">
        <g id="Artboard" transform="translate(-1284.000000, -9364.000000)" fill="#FFFFFF">
            <g id="footer" transform="translate(0.000000, 8847.000000)">
                <g id="Group-25" transform="translate(512.000000, 508.000000)">
                    <g id="ic_b" transform="translate(760.000000, 0.000000)">
                        <g id="Group-3" transform="translate(12.000000, 9.000000)">
                            <path d="M14.5259259,12.1318519 C14.2478625,11.6222031 13.834709,11.199054 13.3318519,10.9088889 C12.858646,10.6534546 12.3534367,10.4623819 11.8296296,10.3407407 C12.3690842,10.1658208 12.8694511,9.88783909 13.302963,9.52222222 C13.6651988,9.20777996 13.9572056,8.82062491 14.16,8.38592593 C14.6434001,7.35558265 14.5444517,6.14621264 13.9,5.20814815 C13.4994798,4.6388379 12.9401622,4.20009174 12.2918519,3.94666667 C11.9809174,3.82413159 11.6582443,3.73378311 11.3288889,3.67703704 L11.3288889,1.11555556 L8.97925926,1.11555556 L8.97925926,3.5037037 L7.45777778,3.5037037 L7.45777778,1.11555556 L5.08888889,1.11555556 L5.08888889,3.5037037 L1.47777778,3.5037037 L1.47777778,5.50666667 L2.02666667,5.50666667 C2.28174802,5.4873402 2.53798956,5.52347682 2.77777778,5.61259259 C2.89940581,5.67192642 2.99770321,5.77022382 3.05703704,5.89185185 C3.12799423,6.1585198 3.15402963,6.43514593 3.13407407,6.71037037 L3.13407407,14.7992593 C3.15349332,15.0712961 3.12745795,15.3446675 3.05703704,15.6081481 C3.00012259,15.7338162 2.90144486,15.8358966 2.77777778,15.897037 C2.5362472,15.9785264 2.28094259,16.0112577 2.02666667,15.9933333 L1.47777778,15.9933333 L1.47777778,17.9962963 L5.08888889,17.9962963 L5.08888889,20.3844444 L7.45777778,20.3844444 L7.45777778,17.9962963 L8.97925926,17.9962963 L8.97925926,20.3844444 L11.3481481,20.3844444 L11.3481481,17.7940741 C11.7074279,17.7266289 12.0590565,17.6233985 12.3977778,17.4859259 C13.1727872,17.1938502 13.8432574,16.6775882 14.3237037,16.002963 C14.7657445,15.3816895 15.0015275,14.6372888 14.9977778,13.8748148 C14.996311,13.2624681 14.833567,12.6613116 14.5259259,12.1318519 Z M6.59111111,5.81481481 L8.12222222,5.81481481 C8.74997368,5.7852251 9.37877902,5.84356787 9.99037037,5.98814815 C10.3149041,6.08391674 10.5969281,6.28778945 10.7896296,6.56592593 C10.9771564,6.85165568 11.0744534,7.18716267 11.0688889,7.52888889 C11.0728148,7.87179343 10.9720324,8.2077348 10.78,8.49185185 C10.5652269,8.78755177 10.2615633,9.00686439 9.91333333,9.11777778 C9.33490255,9.28443013 8.7332343,9.35597987 8.13185185,9.32962963 L6.59111111,9.32962963 L6.59111111,5.81481481 Z M10.962963,14.7992593 C10.7258889,15.1331181 10.388578,15.3827281 10,15.5118519 C9.5193348,15.6378407 9.02344763,15.6961803 8.52666667,15.6851852 L7.42888889,15.6851852 C7.21849068,15.7003341 7.00703289,15.6808149 6.80296296,15.6274074 C6.72203642,15.586451 6.66246749,15.5128659 6.63925926,15.4251852 C6.61522794,15.1625238 6.61522794,14.8982169 6.63925926,14.6355556 L6.63925926,11.5059259 L8.44962963,11.5059259 C9.04925056,11.477966 9.64909409,11.5562065 10.2214815,11.737037 C10.5754447,11.862495 10.8794211,12.098921 11.0881481,12.4111111 C11.2809859,12.7467025 11.3682347,13.1326106 11.3385185,13.5185185 C11.357419,13.9750955 11.2254363,14.4251904 10.962963,14.7992593 Z" id="IC_b"></path>
                        </g>
                    </g>
                </g>
            </g>
        </g>
    </g>
</svg>