<?xml version="1.0" encoding="UTF-8"?>
<svg width="37px" height="20px" viewBox="0 0 37 20" version="1.1" xmlns="http://www.w3.org/2000/svg" xmlns:xlink="http://www.w3.org/1999/xlink">
    <!-- Generator: sketchtool 50.2 (55047) - http://www.bohemiancoding.com/sketch -->
    <title>1E6E36FC-771C-4980-8148-63C81B9D45E1</title>
    <desc>Created with sketchtool.</desc>
    <defs></defs>
    <g id="Page-1" stroke="none" stroke-width="1" fill="none" fill-rule="evenodd">
        <g id="Artboard" transform="translate(-419.000000, -40.000000)" fill="#FFFFFF" fill-rule="nonzero">
            <g id="1" transform="translate(-143.000000, -14.000000)">
                <g id="ic_burger" transform="translate(562.000000, 54.000000)">
                    <path d="M2.64285714,4 L34.3571429,4 C35.816,4 37,3.104 37,2 C37,0.896 35.816,0 34.3571429,0 L2.64285714,0 C1.184,0 0,0.896 0,2 C0,3.104 1.184,4 2.64285714,4 Z M34.3571429,8 L2.64285714,8 C1.184,8 0,8.896 0,10 C0,11.104 1.184,12 2.64285714,12 L34.3571429,12 C35.816,12 37,11.104 37,10 C37,8.896 35.816,8 34.3571429,8 Z M26,16 L2,16 C0.896,16 0,16.896 0,18 C0,19.104 0.896,20 2,20 L26,20 C27.104,20 28,19.104 28,18 C28,16.896 27.104,16 26,16 Z"></path>
                </g>
            </g>
        </g>
    </g>
</svg>