<?xml version="1.0" encoding="UTF-8"?>
<svg width="18px" height="16px" viewBox="0 0 18 16" version="1.1" xmlns="http://www.w3.org/2000/svg" xmlns:xlink="http://www.w3.org/1999/xlink">
    <!-- Generator: sketchtool 50.2 (55047) - http://www.bohemiancoding.com/sketch -->
    <title>C4C27E23-98EE-4418-BBB4-A53C59C513D1</title>
    <desc>Created with sketchtool.</desc>
    <defs></defs>
    <g id="Page-1" stroke="none" stroke-width="1" fill="none" fill-rule="evenodd">
        <g id="Artboard" transform="translate(-579.000000, -41.000000)" fill="#FFFFFF">
            <g id="1" transform="translate(-143.000000, -14.000000)">
                <g id="content" transform="translate(547.000000, 43.000000)">
                    <g id="ic_inst" transform="translate(164.000000, 0.000000)">
                        <g id="Group-6" transform="translate(11.000000, 12.000000)">
                            <path d="M14.8333333,14.3194444 L3.16666667,14.3194444 C2.89833333,14.3194444 2.68055556,14.1016667 2.68055556,13.8333333 L2.68055556,6.54166667 L4.625,6.54166667 C4.37173611,6.90625 4.28618056,7.58631944 4.28618056,8.01798611 C4.28618056,10.6211111 6.40902778,12.7390972 9.01798611,12.7390972 C11.6274306,12.7390972 13.7502778,10.6211111 13.7502778,8.01798611 C13.7502778,7.58631944 13.6890278,6.91645833 13.375,6.54166667 L15.3194444,6.54166667 L15.3194444,13.8333333 C15.3194444,14.1016667 15.1016667,14.3194444 14.8333333,14.3194444 M9.01798611,5.03375 C10.6702778,5.03375 12.0095139,6.37006944 12.0095139,8.01798611 C12.0095139,9.66638889 10.6702778,11.0027083 9.01798611,11.0027083 C7.36618056,11.0027083 6.02694444,9.66638889 6.02694444,8.01798611 C6.02694444,6.37006944 7.36618056,5.03375 9.01798611,5.03375 M12.8888889,2.16666667 L14.3472222,2.16666667 C14.6155556,2.16666667 14.8333333,2.38444444 14.8333333,2.65277778 L14.8333333,4.11111111 C14.8333333,4.37944444 14.6155556,4.59722222 14.3472222,4.59722222 L12.8888889,4.59722222 C12.6205556,4.59722222 12.4027778,4.37944444 12.4027778,4.11111111 L12.4027778,2.65277778 C12.4027778,2.38444444 12.6205556,2.16666667 12.8888889,2.16666667 M14.9286111,0.222222222 L3.07138889,0.222222222 C2.05006944,0.222222222 1.22222222,1.048125 1.22222222,2.06701389 L1.22222222,13.9329861 C1.22222222,14.951875 2.05006944,15.7777778 3.07138889,15.7777778 L14.9286111,15.7777778 C15.9499306,15.7777778 16.7777778,14.951875 16.7777778,13.9329861 L16.7777778,2.06701389 C16.7777778,1.048125 15.9499306,0.222222222 14.9286111,0.222222222" id="ic_inst"></path>
                        </g>
                    </g>
                </g>
            </g>
        </g>
    </g>
</svg>