<?xml version="1.0" encoding="UTF-8"?>
<svg width="19px" height="15px" viewBox="0 0 19 15" version="1.1" xmlns="http://www.w3.org/2000/svg" xmlns:xlink="http://www.w3.org/1999/xlink">
    <!-- Generator: sketchtool 50.2 (55047) - http://www.bohemiancoding.com/sketch -->
    <title>26E10951-692F-422F-AD91-13C2010112D7</title>
    <desc>Created with sketchtool.</desc>
    <defs></defs>
    <g id="Page-1" stroke="none" stroke-width="1" fill="none" fill-rule="evenodd">
        <g id="Artboard" transform="translate(-638.000000, -42.000000)" fill="#FFFFFF">
            <g id="1" transform="translate(-143.000000, -14.000000)">
                <g id="content" transform="translate(547.000000, 43.000000)">
                    <g id="ic_twi" transform="translate(223.000000, 0.000000)">
                        <g id="Group-5" transform="translate(11.000000, 13.000000)">
                            <path d="M17.6293234,3.02260249 C17.0258497,3.29024333 16.3767438,3.47123416 15.6958491,3.55275695 C16.3911,3.13591403 16.9248435,2.47655365 17.1760773,1.69055096 C16.5259459,2.07611784 15.8050589,2.356064 15.0385396,2.50731697 C14.4242987,1.85308381 13.5495952,1.44444444 12.5815762,1.44444444 C10.7224465,1.44444444 9.21555684,2.95133415 9.21555684,4.8104638 C9.21555684,5.07400286 9.24529471,5.33087654 9.30271956,5.57749578 C6.50479609,5.43700998 4.0247602,4.0967549 2.36456664,2.06022346 C2.07487876,2.55756372 1.90875686,3.13591403 1.90875686,3.75271849 C1.90875686,4.92018629 2.50300156,5.95075733 3.40590485,6.55423102 C2.85421607,6.53679848 2.33534149,6.38554551 1.8815826,6.13328633 C1.88106988,6.14764255 1.88106988,6.16148604 1.88106988,6.17584225 C1.88106988,7.80681066 3.04135957,9.16706189 4.58157619,9.4762332 C4.29906642,9.55314149 4.00168771,9.59415924 3.69456728,9.59415924 C3.47768592,9.59415924 3.26695721,9.57313764 3.06135572,9.53417078 C3.48947852,10.8713495 4.73282916,11.8444957 6.20587921,11.87167 C5.05379307,12.7745733 3.60227734,13.3124186 2.02514474,13.3124186 C1.75340212,13.3124186 1.48576129,13.2965242 1.22222222,13.2657609 C2.71167938,14.2204491 4.4810827,14.7777778 6.38225555,14.7777778 C12.5738854,14.7777778 15.9593882,9.64850777 15.9593882,5.20064518 C15.9593882,5.05451943 15.9563118,4.90941913 15.9496464,4.76483155 C16.6074686,4.29056378 17.1781281,3.69785725 17.6293234,3.02260249" id="ic_twi"></path>
                        </g>
                    </g>
                </g>
            </g>
        </g>
    </g>
</svg>