<?xml version="1.0" encoding="UTF-8"?>
<svg width="21px" height="14px" viewBox="0 0 21 14" version="1.1" xmlns="http://www.w3.org/2000/svg" xmlns:xlink="http://www.w3.org/1999/xlink">
    <!-- Generator: sketchtool 50.2 (55047) - http://www.bohemiancoding.com/sketch -->
    <title>94B2D4A9-FEA2-4DF0-9F1F-3DF7DA3D25C6</title>
    <desc>Created with sketchtool.</desc>
    <defs></defs>
    <g id="Page-1" stroke="none" stroke-width="1" fill="none" fill-rule="evenodd">
        <g id="Artboard" transform="translate(-697.000000, -42.000000)" fill="#FFFFFF">
            <g id="1" transform="translate(-143.000000, -14.000000)">
                <g id="content" transform="translate(547.000000, 43.000000)">
                    <g id="ic_youtube" transform="translate(283.000000, 0.000000)">
                        <g id="Group-4" transform="translate(10.000000, 13.000000)">
                            <path d="M8.60527778,9.42597222 L8.6046875,4.11878472 L13.7082292,6.78152778 L8.60527778,9.42597222 Z M19.8111111,3.19913194 C19.8111111,3.19913194 19.6263542,1.89756944 19.0602778,1.32440972 C18.3419097,0.571805556 17.5367708,0.568263889 17.1678472,0.524583333 C14.5245833,0.333333333 10.5596875,0.333333333 10.5596875,0.333333333 L10.5514236,0.333333333 C10.5514236,0.333333333 6.58652778,0.333333333 3.94326389,0.524583333 C3.57375,0.568263889 2.76920139,0.571805556 2.05024306,1.32440972 C1.48416667,1.89756944 1.3,3.19913194 1.3,3.19913194 C1.3,3.19913194 1.11111111,4.72795139 1.11111111,6.25618056 L1.11111111,7.689375 C1.11111111,9.21819444 1.3,10.7464236 1.3,10.7464236 C1.3,10.7464236 1.48416667,12.0479861 2.05024306,12.6211458 C2.76920139,13.37375 3.71305556,13.3501389 4.13333333,13.4286458 C5.64444444,13.5738542 10.5555556,13.6187153 10.5555556,13.6187153 C10.5555556,13.6187153 14.5245833,13.6128125 17.1678472,13.4215625 C17.5367708,13.3772917 18.3419097,13.37375 19.0602778,12.6211458 C19.6263542,12.0479861 19.8111111,10.7464236 19.8111111,10.7464236 C19.8111111,10.7464236 20,9.21819444 20,7.689375 L20,6.25618056 C20,4.72795139 19.8111111,3.19913194 19.8111111,3.19913194 L19.8111111,3.19913194 Z" id="ic_youtube"></path>
                        </g>
                    </g>
                </g>
            </g>
        </g>
    </g>
</svg>