<?xml version="1.0" encoding="UTF-8"?>
<svg width="65px" height="60px" viewBox="0 0 65 60" version="1.1" xmlns="http://www.w3.org/2000/svg" xmlns:xlink="http://www.w3.org/1999/xlink">
    <!-- Generator: Sketch 50.2 (55047) - http://www.bohemiancoding.com/sketch -->
    <title>ico_real</title>
    <desc>Created with Sketch.</desc>
    <defs>
        <linearGradient x1="50%" y1="0%" x2="50%" y2="100%" id="linearGradient-1">
            <stop stop-color="#26D3A8" offset="0%"></stop>
            <stop stop-color="#27C2DD" offset="100%"></stop>
        </linearGradient>
    </defs>
    <g id="ico_real" stroke="none" stroke-width="1" fill="none" fill-rule="evenodd">
        <g transform="translate(9.000000, 1.000000)" fill="url(#linearGradient-1)" fill-rule="nonzero" id="Shape">
            <path d="M43.8790894,38.1283983 C41.1014919,38.3059843 37.4469448,41.1776141 33.9222287,42.8290692 C29.6017401,44.8526545 22.8772789,43.2257549 22.8764921,43.2257549 C23.9139602,42.7221648 28.1294036,41.6833747 28.9784199,41.2982206 C33.4911634,39.2434323 33.1082274,34.9642738 30.9590646,35.0002251 C28.119699,35.0470297 26.452616,35.7679557 20.7872614,36.5671607 C16.492739,37.1711431 11.4137224,36.9502798 8.9774888,37.9126903 C5.53840869,39.271515 0,48.4144143 0,48.4144143 L8.56373428,57 C8.56373428,57 13.8654308,51.5983459 16.444872,51.5983459 C22.3230708,51.5983459 22.561619,51.5169466 28.0188505,51.2098001 C30.3396787,51.081325 30.8241191,50.9825605 32.1533791,50.5196701 C39.2275972,48.0448617 46.8249427,41.4546428 46.9643471,40.6619498 C47.2874821,38.8257184 45.3464424,38.0366884 43.8790894,38.1283983 Z"></path>
            <path d="M27.5292783,8.36324007 C28.7413066,7.6503314 29.8232459,6.65982881 30.7781651,5.653897 C31.5831151,4.80700476 32.6471756,3.72036631 32.5320302,2.46479779 C32.4514418,1.58098094 31.7005287,1.14276497 30.8795677,1.04227729 C30.6155206,1.00957264 30.3500059,1.00113272 30.0834236,1.00495706 C29.904368,1.00746266 29.5421204,0.960251909 29.4018913,1.09502672 C29.1076902,1.37763184 28.8152237,1.65970947 28.5231575,1.94416082 C28.460448,1.75122975 28.3992061,1.55790306 28.3371637,1.36220264 C28.3006054,1.24694512 28.1974683,1.20250371 28.0823229,1.21885603 C27.2717691,1.34545469 26.4778932,1.50304364 25.6621358,1.3544221 C24.660518,1.17177716 23.6747778,0.894710729 22.6851682,0.665646294 C22.5713571,0.638480332 22.4650178,0.699405935 22.4293934,0.808729147 C22.3492053,1.06008022 22.26835,1.31116756 22.1885622,1.56212301 C21.8388565,1.2200429 21.4874164,0.881918997 21.1345086,0.5427401 C21.0508514,0.463484068 20.9354392,0.290861528 20.8092196,0.2700255 C20.574526,0.227825949 20.3388982,0.187868248 20.1020698,0.151075515 C19.7330176,0.0942379944 19.3623643,0.0517746955 18.989843,0.0231581248 C18.171684,-0.0397455814 16.6936073,-0.053328562 16.6479761,1.06561891 C16.6050134,2.85698987 18.204373,4.27647728 19.3511566,5.46544963 C20.060975,6.2018318 20.9126236,7.0534715 21.3898831,8.01641251 C16.3216197,9.63555658 12,15.7176988 12,22.2607392 C12,29.9046604 15.6702413,32 24.0007339,32 C32.3302924,32 36,29.9046604 36,22.2607392 C35.9998666,16.1168802 32.1899298,10.3811699 27.5292783,8.36324007 Z M27.5255425,23.3853572 C27.2204006,23.8354418 26.7997132,24.196248 26.3164496,24.4482584 C26.0616088,24.5782858 25.7938258,24.6818065 25.5199052,24.7618538 C25.4810788,24.7747774 25.1236345,24.8707814 25.1236345,24.8707814 L25.1236345,25.8583828 C25.1236345,26.3178304 25.0347738,26.8045758 24.6183559,27.0775542 C24.1632449,27.373083 23.4898514,27.2848595 23.1520205,26.8549516 C22.904518,26.5410924 22.8903751,26.1281962 22.8903751,25.7470815 C22.8903751,25.4580145 22.8903751,24.8699902 22.8903751,24.8699902 C22.8903751,24.8699902 22.6623526,24.8015478 22.6135192,24.7892835 C22.4535433,24.7462928 22.2949015,24.6952577 22.1379943,24.6425082 C22.0449974,24.6100673 21.9540019,24.5760439 21.861939,24.5403062 C21.7960273,24.5839563 21.72678,24.623914 21.6555313,24.6588605 C21.5301123,24.7203137 21.3948198,24.7642275 21.2564586,24.7789974 C20.7090179,24.8301643 20.2278891,24.5082609 20.0856585,23.9863052 C19.9965309,23.6545112 20.0217482,23.2991119 20.0217482,22.9572955 C20.0217482,22.6169297 19.995597,22.2577061 20.0856585,21.9232746 C20.236962,21.3716474 20.7523808,21.0581839 21.3206357,21.1380992 C21.5877516,21.1746282 21.8291165,21.3045238 21.9929619,21.5163127 C22.079421,21.6269546 22.1418636,21.7551358 22.1866942,21.8856906 C22.2283227,22.0093881 22.2587435,22.1358549 22.3410664,22.2392438 C22.503444,22.4412741 22.7981788,22.5458499 23.0364749,22.6211498 C23.3530913,22.7222967 23.6859854,22.7720131 24.0184793,22.7720131 C24.5513768,22.7720131 25.2104939,22.6591293 25.5966244,22.2595523 C25.8601378,21.9848596 25.7620708,21.5064222 25.3983556,21.3820654 C25.0517187,21.2658848 24.7563168,21.2069373 24.418486,21.1458798 C24.10734,21.0875916 23.7959272,21.0323366 23.485982,20.974576 C22.633266,20.8200202 21.7458596,20.6107367 21.1195651,19.9745785 C20.3188845,19.1635559 20.162511,17.880162 20.7575844,16.9060118 C21.0501843,16.4271787 21.4887507,16.0392066 21.9932287,15.7874599 C22.2550076,15.6557181 22.5339982,15.5619561 22.8183259,15.4957555 C22.9010491,15.4754469 22.8903751,15.4829637 22.8903751,15.4095101 C22.8903751,15.3475296 22.8903751,15.283439 22.8903751,15.2190847 C22.8903751,14.9174897 22.8726296,14.6070593 22.8999817,14.3066512 C22.9460131,13.7736182 23.2384796,13.2939939 23.8082023,13.2022099 C24.3651162,13.1149096 24.8846712,13.4113614 25.0478493,13.9492738 C25.1495188,14.2823865 25.1236345,14.6425333 25.1236345,14.9883059 C25.1236345,15.1336306 25.1236345,15.2785597 25.1236345,15.4238844 C25.1236345,15.4372036 25.1236345,15.4534241 25.1236345,15.4671389 C25.1236345,15.4734689 25.2682667,15.4974698 25.2846779,15.5005029 C25.3652662,15.5161959 25.4457212,15.5365044 25.524842,15.5582636 C25.5898197,15.5751434 25.6974932,15.6352778 25.7508631,15.5926826 C26.2095765,15.2248871 26.9464801,15.2388657 27.3358128,15.6960714 C27.6261445,16.0403934 27.6188062,16.5888557 27.6188062,17.0120381 C27.6188062,17.4030434 27.6506947,17.8163352 27.4867159,18.1814932 C27.2542904,18.6960639 26.635601,18.9133917 26.1120432,18.7223068 C25.856135,18.6314459 25.6438566,18.4422073 25.5233743,18.2011423 C25.4872163,18.13059 25.459464,18.0568726 25.4381161,17.981441 C25.4285095,17.9471538 25.41957,17.9123392 25.4120983,17.8775245 C25.3858136,17.8607766 25.358595,17.844688 25.3303091,17.8307094 C25.2176988,17.7679376 25.0977501,17.7188806 24.9740656,17.6786591 C24.6848012,17.5881939 24.3807268,17.5595773 24.079054,17.5639291 C23.8007305,17.5676216 23.5169365,17.5908313 23.2510215,17.6714061 C22.91706,17.7730806 22.3416001,18.1725258 22.7961774,18.4960117 C23.067296,18.6911846 23.4584966,18.745121 23.7768476,18.8073653 C24.0602412,18.8607741 24.3429677,18.9168203 24.6264948,18.9703611 C25.4686702,19.1344118 26.3852966,19.3041331 27.0588236,19.8690796 C26.60011,19.4853275 27.6720426,20.3763973 27.0588236,19.8690796 C28.0948648,20.7271811 28.270318,22.2830258 27.5255425,23.3853572 Z"></path>
        </g>
    </g>
</svg>