<?xml version="1.0" encoding="UTF-8"?>
<svg width="105px" height="74px" viewBox="0 0 105 74" version="1.1" xmlns="http://www.w3.org/2000/svg" xmlns:xlink="http://www.w3.org/1999/xlink">
    <!-- Generator: sketchtool 50.2 (55047) - http://www.bohemiancoding.com/sketch -->
    <title>6040C95A-768C-400F-9864-1CCD5E66B80B</title>
    <desc>Created with sketchtool.</desc>
    <defs>
        <linearGradient x1="50%" y1="-6.33530188e-15%" x2="50%" y2="100%" id="linearGradient-1">
            <stop stop-color="#E52D27" offset="0%"></stop>
            <stop stop-color="#BF171D" offset="100%"></stop>
        </linearGradient>
    </defs>
    <g id="Page-1" stroke="none" stroke-width="1" fill="none" fill-rule="evenodd">
        <g id="Artboard" transform="translate(-908.000000, -1149.000000)" fill-rule="nonzero">
            <g id="2" transform="translate(0.000000, 774.000000)">
                <g id="ico_youtube" transform="translate(908.000000, 375.000000)">
                    <polygon id="Triangle" fill="#FFFFFF" points="42 51 70 36.0522648 42 21"></polygon>
                    <polygon id="The_Sharpness" fill="#420000" opacity="0.12" points="42 21 66.5507246 38 70 36.1485149"></polygon>
                    <g id="Lozenge" fill="url(#linearGradient-1)">
                        <path d="M103.870968,15.9835883 C103.870968,15.9835883 102.844575,8.7379694 99.7038123,5.54742698 C95.7214076,1.35855355 91.2463343,1.3379694 89.2038123,1.09095967 C74.526393,0.030876217 52.5205279,0.030876217 52.5205279,0.030876217 L52.4794721,0.030876217 C52.4794721,0.030876217 30.473607,0.030876217 15.7961877,1.09095967 C13.7536657,1.3379694 9.27859238,1.35855355 5.29618768,5.54742698 C2.15542522,8.7379694 1.12903226,15.9835883 1.12903226,15.9835883 C1.12903226,15.9835883 0.082111437,24.4848401 0.082111437,32.9963839 L0.082111437,40.9727399 C0.082111437,49.4842837 1.12903226,57.9855355 1.12903226,57.9855355 C1.12903226,57.9855355 2.15542522,65.2311544 5.29618768,68.4216968 C9.2888563,72.6105702 14.5234604,72.4767733 16.8533724,72.9193324 C25.2390029,73.722114 52.5,73.9794159 52.5,73.9794159 C52.5,73.9794159 74.526393,73.9485396 89.2038123,72.8781641 C91.2565982,72.6311544 95.7214076,72.6105702 99.7038123,68.4216968 C102.844575,65.2311544 103.870968,57.9855355 103.870968,57.9855355 C103.870968,57.9855355 104.917889,49.4739917 104.917889,40.9727399 L104.917889,32.9963839 C104.917889,24.4848401 103.870968,15.9835883 103.870968,15.9835883 Z M41.6715543,50.6369958 L41.6715543,21.0987483 L70,35.9193324 L41.6715543,50.6369958 Z" id="Shape"></path>
                    </g>
                </g>
            </g>
        </g>
    </g>
</svg>