<?xml version="1.0" encoding="UTF-8"?>
<svg width="65px" height="60px" viewBox="0 0 65 60" version="1.1" xmlns="http://www.w3.org/2000/svg" xmlns:xlink="http://www.w3.org/1999/xlink">
    <!-- Generator: Sketch 50.2 (55047) - http://www.bohemiancoding.com/sketch -->
    <title>ico_settings</title>
    <desc>Created with Sketch.</desc>
    <defs>
        <linearGradient x1="50%" y1="0%" x2="50%" y2="100%" id="linearGradient-1">
            <stop stop-color="#26D3A8" offset="0%"></stop>
            <stop stop-color="#27C2DD" offset="100%"></stop>
        </linearGradient>
    </defs>
    <g id="ico_settings" stroke="none" stroke-width="1" fill="none" fill-rule="evenodd">
        <g transform="translate(3.000000, 4.000000)" fill="url(#linearGradient-1)" fill-rule="nonzero" id="Shape">
            <path d="M36.4696707,38.2186232 C36.4696707,38.0104341 36.3965532,37.8020261 36.2508654,37.593837 C35.0840496,36.1973719 34.1467659,34.9994636 33.4381388,34.0001122 C33.87564,33.1460115 34.2090472,32.3541924 34.4375943,31.62564 L39.2816311,30.8756338 C39.4696789,30.854399 39.6363825,30.7453788 39.7820704,30.5479166 C39.9277581,30.3491409 40,30.1464247 40,29.9381261 L40,24.1563361 C40,23.9274595 39.9277581,23.7240865 39.7820704,23.5473118 C39.6363825,23.3705372 39.459171,23.2607508 39.2508736,23.2197041 L34.5004228,22.5008935 C34.2707812,21.7923719 33.9169055,20.9377239 33.4378105,19.9381535 C33.7498735,19.4795245 34.2192267,18.8543005 34.8443379,18.0630286 C35.4692302,17.2712095 35.9074975,16.7089238 36.1568415,16.3755148 C36.3029671,16.1672163 36.3756468,15.9690973 36.3756468,15.7818146 C36.3756468,15.2192005 34.8754238,13.5524837 31.8761818,10.7814453 C31.6679938,10.6150691 31.4491885,10.5317715 31.2192185,10.5317715 C30.9697651,10.5317715 30.7614677,10.6039044 30.5939979,10.7503592 L26.9062689,13.5316867 C26.0523918,13.0942925 25.2710849,12.771501 24.5626766,12.5625456 L23.84387,7.7814206 C23.8234015,7.57312205 23.7190885,7.39054611 23.531588,7.23445902 C23.3439781,7.07826246 23.1356806,7 22.9062579,7 L17.0940705,7 C16.6149755,7 16.3024745,7.25000205 16.1566773,7.7498967 C15.9064577,8.70842033 15.6670744,10.312965 15.4378706,12.5625456 C14.5421808,12.8541417 13.740077,13.1875508 13.0317782,13.5625539 L9.43807309,10.7502497 C9.22977573,10.6041233 9.01107983,10.5316621 8.78176659,10.5316621 C8.38542137,10.5316621 7.56263015,11.1461593 6.31273619,12.3755915 C5.06262331,13.6045857 4.20797999,14.5316949 3.75001026,15.1568095 C3.6039941,15.323733 3.53142385,15.5320315 3.53142385,15.7820335 C3.53142385,15.9693162 3.60388465,16.1776147 3.75001026,16.4068198 C4.91649769,17.8030659 5.8538908,19.0009742 6.5624085,20.0005445 C6.12501676,20.8551925 5.79182845,21.6464644 5.56284359,22.3755641 L0.718806695,23.1251324 C0.531087267,23.1459294 0.364602574,23.2551685 0.218586413,23.4527402 C0.0728986233,23.651078 0,23.8539037 0,24.0620928 L0,29.8435545 C0,30.0728689 0.0728986233,30.275804 0.218586413,30.4525787 C0.364602574,30.6301195 0.54148572,30.7289601 0.750220967,30.7496477 L5.50023396,31.4996538 C5.75023465,32.2910351 6.11516559,33.1455736 6.5942606,34.0621749 C6.26085338,34.5209133 5.77146938,35.1566454 5.12556131,35.9687142 C4.47921541,36.7816586 4.05233158,37.3337648 3.84414362,37.6251419 C3.69834637,37.8334405 3.62533829,38.0319973 3.62533829,38.2185137 C3.62533829,38.781894 5.12556131,40.4480635 8.12556952,43.219321 C8.33386694,43.3855876 8.55234389,43.4683379 8.78187605,43.4683379 C9.05267364,43.4683379 9.26097109,43.3960956 9.40665882,43.2499692 L13.0941689,40.4690795 C13.9480461,40.9065831 14.7293529,41.2290464 15.4379801,41.4374544 L16.1567867,46.2190173 C16.1773647,46.4272064 16.2817871,46.6100012 16.4690687,46.7658694 C16.6565692,46.9220659 16.8648666,47 17.0941799,47 L22.9063675,47 C23.3857908,47 23.6980727,46.7502169 23.8439795,46.2501033 C24.0939801,45.2705637 24.3333635,43.6561678 24.5627861,41.4059305 C25.3958664,41.1569135 26.1978606,40.8329178 26.9688785,40.437665 L30.5626931,43.2499692 C30.7709905,43.3960956 30.9896864,43.4683379 31.2189996,43.4683379 C31.614907,43.4683379 32.4329915,42.8488056 33.6724871,41.6085372 C34.9115447,40.3698011 35.7713325,39.4366717 36.2507559,38.8118855 C36.3965532,38.6665253 36.4696707,38.4688442 36.4696707,38.2186232 Z M25.6564844,32.6568437 C24.0943085,34.2188093 22.208686,35.0001204 20.0004925,35.0001204 C17.7917518,35.0001204 15.9061294,34.2186998 14.3439535,32.6568437 C12.7815586,31.094112 12.0002517,29.2083697 12.0002517,27.0000547 C12.0002517,24.7918492 12.7815586,22.9062164 14.3439535,21.343813 C15.9061294,19.7813002 17.7918613,19.000208 20.0004925,19.000208 C22.208686,19.000208 24.0943085,19.7811907 25.6564844,21.343813 C27.2192075,22.9062164 28.0002955,24.7918492 28.0002955,27.0000547 C28.0002955,29.2083697 27.219317,31.094112 25.6564844,32.6568437 Z"></path>
            <path d="M54.5373495,40.3325127 C54.278154,39.7294473 53.9783643,39.1885794 53.6392389,38.7096906 C54.6576639,36.3582054 55.1662996,34.9225227 55.1662996,34.4026425 C55.1662996,34.3203317 55.1271737,34.2469844 55.0467193,34.1845682 C52.6502894,32.7283351 51.4128437,32 51.3329138,32 L51.1534385,32.0627442 C50.3349432,32.9161304 49.4160635,34.0809419 48.3982679,35.5581627 C47.9991426,35.516734 47.7000871,35.4954185 47.5004721,35.4954185 C47.3002276,35.4954185 47.001172,35.516734 46.6016273,35.5581627 C46.3231311,35.1209211 45.8033767,34.4183831 45.0447765,33.4514234 C44.286386,32.4844636 43.8268412,32.0001093 43.6670862,32.0001093 C43.6272261,32.0001093 43.327856,32.1664797 42.7685561,32.5002044 C42.2096759,32.8331639 41.6206908,33.1862364 41.0017057,33.561499 C40.3821962,33.9367616 40.0336302,34.1439048 39.9535954,34.1857707 C39.8731409,34.2478589 39.8335956,34.3212062 39.8335956,34.4035169 C39.8335956,34.9242717 40.3426507,36.3588613 41.3607611,38.7105651 C41.0219504,39.1894539 40.7220558,39.7303217 40.4626505,40.33295 C37.4875152,40.6445939 36,40.9674968 36,41.300347 L36,45.6692648 C36,46.0022242 37.4875152,46.3246899 40.4626505,46.6366618 C40.7017062,47.1986265 41.0014959,47.7394943 41.3607611,48.2587187 C40.3426507,50.6102039 39.8335956,52.0458866 39.8335956,52.5657668 C39.8335956,52.6488428 39.8731409,52.72219 39.9535954,52.7842783 C42.3888364,54.261499 43.6272261,55 43.6670862,55 C43.8267363,55 44.2862811,54.5110546 45.0447765,53.5331639 C45.8032718,52.5550545 46.3223969,51.8483627 46.6016273,51.4114491 C47.0008574,51.4522218 47.3002276,51.4731001 47.5004721,51.4731001 C47.6999822,51.4731001 47.9991426,51.4522218 48.3982679,51.4114491 C48.6771835,51.8483627 49.1966233,52.5550545 49.9551186,53.5331639 C50.713614,54.5110546 51.1727392,55 51.3329138,55 C51.3727739,55 52.6112685,54.2611711 55.0467193,52.7842783 C55.1271737,52.72219 55.1662996,52.6492799 55.1662996,52.5657668 C55.1662996,52.0457773 54.6570346,50.6100946 53.6392389,48.2587187 C53.998609,47.7394943 54.2978743,47.1986265 54.5373495,46.6366618 C57.5123799,46.3246899 59,46.0022242 59,45.6692648 L59,41.300347 C59,40.9673875 57.5123799,40.6444846 54.5373495,40.3325127 Z M50.2095938,46.3087306 C49.4619026,47.0890975 48.5580229,47.4799915 47.4997378,47.4799915 C46.441138,47.4799915 45.5376778,47.0890975 44.789567,46.3087306 C44.0407221,45.5283637 43.6659324,44.5873105 43.6659324,43.4844779 C43.6659324,42.4029609 44.045757,41.4659522 44.8045671,40.675966 C45.5629575,39.8855425 46.4615925,39.4900575 47.4996328,39.4900575 C48.5374635,39.4900575 49.4366229,39.8851053 50.1954329,40.675966 C50.9536137,41.4660615 51.3334382,42.4030702 51.3334382,43.4844779 C51.3328089,44.5873105 50.9587535,45.5283637 50.2095938,46.3087306 Z"></path>
            <path d="M54.5373495,8.33250322 C54.278154,7.72911844 53.9783643,7.18825833 53.6392389,6.70937632 C54.6576639,4.35868981 55.1662996,2.92302757 55.1662996,2.40293613 C55.1662996,2.32008003 55.1271737,2.24695242 55.0467193,2.18442777 C52.6502894,0.728106153 51.4128437,0 51.3329138,0 L51.1534385,0.0623060362 C50.3349432,0.915789424 49.4160635,2.08058437 48.3982679,3.55767467 C47.9991426,3.51635593 47.7000871,3.49536863 47.5004721,3.49536863 C47.3002276,3.49536863 47.001172,3.51635593 46.6016273,3.55767467 C46.3231311,3.12076725 45.8033767,2.41867661 45.0447765,1.45129341 C44.286386,0.483691597 43.8268412,0.000109308836 43.6670862,0.000109308836 C43.6272261,0.000109308836 43.327856,0.166368047 42.7685561,0.499541378 C42.2096759,0.832824017 41.6206908,1.18632879 41.0017057,1.56093017 C40.3821962,1.93564086 40.0336302,2.14354626 39.9535954,2.184865 C39.8731409,2.24728035 39.8335956,2.32008003 39.8335956,2.40337336 C39.8335956,2.92346481 40.3426507,4.35923636 41.3607611,6.71003217 C41.0219504,7.18880487 40.7220558,7.72955568 40.4626505,8.33294045 C37.4875152,8.64479857 36,8.96715032 36,9.30010502 L36,13.6692885 C36,14.0020245 37.4875152,14.3247042 40.4626505,14.6364531 C40.7017062,15.1979726 41.0014959,15.7391606 41.3607611,16.2593614 C40.3426507,18.6105944 39.8335956,20.0457101 39.8335956,20.5660201 C39.8335956,20.6487669 39.8731409,20.7218945 39.9535954,20.7843099 C42.3888364,22.2614002 43.6272261,23 43.6670862,23 C43.8267363,23 44.2862811,22.5112802 45.0447765,21.533294 C45.8032718,20.5553079 46.3223969,19.8482983 46.6016273,19.4111723 C47.0008574,19.452491 47.3002276,19.4735877 47.5004721,19.4735877 C47.6999822,19.4735877 47.9991426,19.452491 48.3982679,19.4111723 C48.6771835,19.8482983 49.1966233,20.5551986 49.9551186,21.533294 C50.713614,22.5112802 51.1727392,23 51.3329138,23 C51.3727739,23 52.6112685,22.2614002 55.0467193,20.7843099 C55.1271737,20.7218945 55.1662996,20.6490948 55.1662996,20.5660201 C55.1662996,20.0457101 54.6570346,18.6105944 53.6392389,16.2593614 C53.998609,15.7391606 54.2978743,15.1983005 54.5373495,14.6364531 C57.5123799,14.3245949 59,14.0020245 59,13.6692885 L59,9.30010502 C59,8.96715032 57.5123799,8.64468925 54.5373495,8.33250322 Z M50.2095938,14.3088545 C49.4619026,15.0892103 48.5580229,15.4793335 47.4997378,15.4793335 C46.441138,15.4793335 45.5376778,15.0892103 44.789567,14.3088545 C44.0407221,13.528936 43.6659324,12.5873497 43.6659324,11.4846421 C43.6659324,10.4028126 44.045757,9.46636374 44.8045671,8.67573297 C45.5629575,7.88510215 46.4615925,7.4897321 47.4996328,7.4897321 C48.5374635,7.4897321 49.4366229,7.88553939 50.1954329,8.67573297 C50.9536137,9.46625444 51.3334382,10.4028126 51.3334382,11.4846421 C51.3328089,12.5873497 50.9587535,13.528936 50.2095938,14.3088545 Z"></path>
        </g>
    </g>
</svg>