<?xml version="1.0" encoding="UTF-8"?>
<svg width="16px" height="21px" viewBox="0 0 16 21" version="1.1" xmlns="http://www.w3.org/2000/svg" xmlns:xlink="http://www.w3.org/1999/xlink">
    <!-- Generator: sketchtool 50.2 (55047) - http://www.bohemiancoding.com/sketch -->
    <title>3A19B15D-FC45-4DD9-97A0-9D88901443AD</title>
    <desc>Created with sketchtool.</desc>
    <defs>
        <circle id="path-1" cx="20" cy="20" r="20"></circle>
        <filter x="-62.5%" y="-122.5%" width="350.0%" height="350.0%" filterUnits="objectBoundingBox" id="filter-2">
            <feOffset dx="25" dy="1" in="SourceAlpha" result="shadowOffsetOuter1"></feOffset>
            <feGaussianBlur stdDeviation="12.5" in="shadowOffsetOuter1" result="shadowBlurOuter1"></feGaussianBlur>
            <feColorMatrix values="0 0 0 0 0   0 0 0 0 0   0 0 0 0 0  0 0 0 0.729562953 0" type="matrix" in="shadowBlurOuter1"></feColorMatrix>
        </filter>
    </defs>
    <g id="Page-1" stroke="none" stroke-width="1" fill="none" fill-rule="evenodd">
        <g id="Artboard" transform="translate(-996.000000, -45.000000)">
            <g id="1" transform="translate(-142.000000, -7.000000)">
                <g id="content" transform="translate(547.000000, 43.000000)">
                    <g id="ic_b" transform="translate(579.000000, 0.000000)">
                        <g id="Oval-3-Copy-9" opacity="0.185858243">
                            <use fill="black" fill-opacity="1" filter="url(#filter-2)" xlink:href="#path-1"></use>
                            <use fill="#26D5A3" fill-rule="evenodd" xlink:href="#path-1"></use>
                        </g>
                        <path d="M26.5259259,21.1318519 C26.2478625,20.6222031 25.834709,20.199054 25.3318519,19.9088889 C24.858646,19.6534546 24.3534367,19.4623819 23.8296296,19.3407407 C24.3690842,19.1658208 24.8694511,18.8878391 25.302963,18.5222222 C25.6651988,18.20778 25.9572056,17.8206249 26.16,17.3859259 C26.6434001,16.3555827 26.5444517,15.1462126 25.9,14.2081481 C25.4994798,13.6388379 24.9401622,13.2000917 24.2918519,12.9466667 C23.9809174,12.8241316 23.6582443,12.7337831 23.3288889,12.677037 L23.3288889,10.1155556 L20.9792593,10.1155556 L20.9792593,12.5037037 L19.4577778,12.5037037 L19.4577778,10.1155556 L17.0888889,10.1155556 L17.0888889,12.5037037 L13.4777778,12.5037037 L13.4777778,14.5066667 L14.0266667,14.5066667 C14.281748,14.4873402 14.5379896,14.5234768 14.7777778,14.6125926 C14.8994058,14.6719264 14.9977032,14.7702238 15.057037,14.8918519 C15.1279942,15.1585198 15.1540296,15.4351459 15.1340741,15.7103704 L15.1340741,23.7992593 C15.1534933,24.0712961 15.1274579,24.3446675 15.057037,24.6081481 C15.0001226,24.7338162 14.9014449,24.8358966 14.7777778,24.897037 C14.5362472,24.9785264 14.2809426,25.0112577 14.0266667,24.9933333 L13.4777778,24.9933333 L13.4777778,26.9962963 L17.0888889,26.9962963 L17.0888889,29.3844444 L19.4577778,29.3844444 L19.4577778,26.9962963 L20.9792593,26.9962963 L20.9792593,29.3844444 L23.3481481,29.3844444 L23.3481481,26.7940741 C23.7074279,26.7266289 24.0590565,26.6233985 24.3977778,26.4859259 C25.1727872,26.1938502 25.8432574,25.6775882 26.3237037,25.002963 C26.7657445,24.3816895 27.0015275,23.6372888 26.9977778,22.8748148 C26.996311,22.2624681 26.833567,21.6613116 26.5259259,21.1318519 Z M18.5911111,14.8148148 L20.1222222,14.8148148 C20.7499737,14.7852251 21.378779,14.8435679 21.9903704,14.9881481 C22.3149041,15.0839167 22.5969281,15.2877895 22.7896296,15.5659259 C22.9771564,15.8516557 23.0744534,16.1871627 23.0688889,16.5288889 C23.0728148,16.8717934 22.9720324,17.2077348 22.78,17.4918519 C22.5652269,17.7875518 22.2615633,18.0068644 21.9133333,18.1177778 C21.3349025,18.2844301 20.7332343,18.3559799 20.1318519,18.3296296 L18.5911111,18.3296296 L18.5911111,14.8148148 Z M22.962963,23.7992593 C22.7258889,24.1331181 22.388578,24.3827281 22,24.5118519 C21.5193348,24.6378407 21.0234476,24.6961803 20.5266667,24.6851852 L19.4288889,24.6851852 C19.2184907,24.7003341 19.0070329,24.6808149 18.802963,24.6274074 C18.7220364,24.586451 18.6624675,24.5128659 18.6392593,24.4251852 C18.6152279,24.1625238 18.6152279,23.8982169 18.6392593,23.6355556 L18.6392593,20.5059259 L20.4496296,20.5059259 C21.0492506,20.477966 21.6490941,20.5562065 22.2214815,20.737037 C22.5754447,20.862495 22.8794211,21.098921 23.0881481,21.4111111 C23.2809859,21.7467025 23.3682347,22.1326106 23.3385185,22.5185185 C23.357419,22.9750955 23.2254363,23.4251904 22.962963,23.7992593 Z" id="Shape" fill="#FFFFFF"></path>
                    </g>
                </g>
            </g>
        </g>
    </g>
</svg>