<?xml version="1.0" encoding="UTF-8"?>
<svg width="22px" height="20px" viewBox="0 0 22 20" version="1.1" xmlns="http://www.w3.org/2000/svg" xmlns:xlink="http://www.w3.org/1999/xlink">
    <!-- Generator: sketchtool 50.2 (55047) - http://www.bohemiancoding.com/sketch -->
    <title>B0389F9C-D548-4427-8C06-317CC3B5EDAA</title>
    <desc>Created with sketchtool.</desc>
    <defs></defs>
    <g id="Page-1" stroke="none" stroke-width="1" fill="none" fill-rule="evenodd">
        <g id="Artboard" transform="translate(-933.000000, -39.000000)" fill="#FFFFFF" fill-rule="nonzero">
            <g id="1" transform="translate(-143.000000, -14.000000)">
                <g id="content" transform="translate(547.000000, 43.000000)">
                    <g id="ic_telegram" transform="translate(520.000000, 0.000000)">
                        <g id="telegram-logo" transform="translate(9.000000, 10.000000)">
                            <path d="M20.3755556,0.917037037 C20.0540741,0.497037037 19.5555556,0.256296296 19.0074074,0.256296296 C18.6533333,0.256296296 18.2866667,0.354814815 17.917037,0.548888889 L2.18,8.8 C1.06148148,9.38740741 0.983703704,10.2718519 1.00222222,10.6244444 C1.02,10.9792593 1.19111111,11.8496296 2.36444444,12.3155556 L4.37555556,13.1111111 C4.75703704,13.2622222 5.1837037,13.34 5.64296296,13.34 C5.71555556,13.34 5.78518519,13.3303704 5.85703704,13.3266667 C5.82962963,13.3622222 5.7962963,13.3896296 5.77111111,13.4266667 C5.3962963,13.9874074 5.37777778,14.7474074 5.71703704,15.5659259 C5.72222222,15.58 5.72740741,15.5918519 5.73259259,15.6037037 C6.32740741,16.9214815 6.98888889,18.4088889 7.06888889,18.6155556 C7.26592593,19.1296296 7.76814815,19.4837037 8.31925926,19.4837037 C9.16814815,19.4837037 9.42,19.0748148 10.8088889,16.8140741 C10.917037,16.6481481 11.1577778,16.262963 11.1985185,15.7725926 C11.3607407,15.8385185 11.5133333,15.8992593 11.6437037,15.9518519 L13.8718519,16.86 C14.3185185,17.0422222 14.7096296,17.202963 14.9155556,17.2881481 C14.9792593,17.3274074 15.0466667,17.3607407 15.117037,17.3896296 C15.2740741,17.4518519 15.4414815,17.4837037 15.6096296,17.4837037 C16.622963,17.4837037 16.8659259,16.6059259 16.9962963,16.1355556 C17.0607407,15.902963 17.1496296,15.5807407 17.2451852,15.2251852 L20.6437037,2.73777778 C20.9,1.79481481 20.5851852,1.19259259 20.3755556,0.917037037 Z M9.68666667,16.102963 C9.68666667,16.102963 8.42592593,18.1555556 8.31851852,18.1555556 C8.31555556,18.1555556 8.31407407,18.1540741 8.31259259,18.1511111 C8.18888889,17.8185185 6.94296296,15.0577778 6.94296296,15.0577778 C6.71333333,14.5044444 6.75481481,14.0303704 7.14962963,14.0303704 C7.2362963,14.0303704 7.34,14.0533333 7.46148148,14.1037037 L8.42888889,14.6066667 C8.59037037,14.717037 8.76666667,14.8125926 8.96074074,14.8888889 L9.00962963,14.9074074 L9.10074074,14.9533333 C9.84814815,15.3488889 10.0859259,15.4918519 9.68666667,16.102963 Z M19.3622222,2.38814815 L15.9651852,14.8755556 C15.7733333,15.5792593 15.6133333,16.1548148 15.6103704,16.1548148 C15.6074074,16.1533333 15.6037037,16.14 15.6037037,16.1377778 C15.6037037,16.1333333 15.0496296,15.9066667 14.3725926,15.6296296 L12.142963,14.7214815 C11.4659259,14.4474074 10.3555556,14.0037037 9.67481481,13.7414815 L9.56222222,13.6962963 L9.14592593,13.48 C8.73333333,13.1637037 8.69703704,12.6422222 9.11185185,12.2 L16.0096296,4.81407407 C16.2866667,4.51851852 16.3911111,4.36592593 16.3311111,4.36592593 C16.2837037,4.36592593 16.1303704,4.46444444 15.8740741,4.66518519 L7.14666667,11.5496296 C6.76592593,11.8466667 6.18740741,12.0125926 5.6437037,12.0125926 C5.36518519,12.0125926 5.09481481,11.9681481 4.86444444,11.877037 L2.85481481,11.0822222 C2.17555556,10.8133333 2.14962963,10.317037 2.7962963,9.9762963 L18.5348148,1.7237037 C18.7162963,1.62888889 18.8755556,1.58444444 19.0074074,1.58444444 C19.3459259,1.58444444 19.5,1.88074074 19.3622222,2.38814815 Z" id="Shape"></path>
                        </g>
                    </g>
                </g>
            </g>
        </g>
    </g>
</svg>